# xmcd CD Database Entry
#
# Track frame offsets:
# 150
# 16286
# 31964
# 45096
# 58687
# 67802
# 76954
# 95300
# 112167
# 128365
# 148632
# 170264
#
# Disc length: 2418 seconds
#
# Revision: 1
# Processed by: cddbd v1.4PL0 Copyright (c) Steve Scherf et al.
# Submitted via: tcd 2.0b
#
DISCID=8b09700c
DTITLE=Ralph Agresca
DYEAR=1900
DGENRE=
TTITLE0=I'll See Ya Later
TTITLE1=You really gotta love me
TTITLE2=Waiting on my lady
TTITLE3=plantation blues
TTITLE4=rockabilly truth
TTITLE5=Daydreamin'
TTITLE6=Honky Tonk Groove
TTITLE7=Twelve Bar Blues in E
TTITLE8=Twelve Bar Blues in A
TTITLE9=Twenty Four Bar Blues in G
TTITLE10=Twelve Bar Very Slow Swing in G
TTITLE11=The Hindelburg Medley
EXTD=
EXTT0=
EXTT1=
EXTT2=
EXTT3=
EXTT4=
EXTT5=
EXTT6=
EXTT7=
EXTT8=
EXTT9=
EXTT10=
EXTT11=
PLAYORDER=
